<svg width="135" height="414" viewBox="0 0 135 414" fill="none" xmlns="http://www.w3.org/2000/svg">
<path d="M-48.7382 384.19C-48.7382 384.19 -42.8797 364.826 -28.5703 362.439C-14.2609 360.051 6.94387 361.816 12.9061 367.63C18.8683 373.444 30.8965 382.684 29.1338 403.968C27.371 425.253 27.2155 437.919 11.0397 439.425C-5.13612 440.93 -17.9938 422.242 -20.3269 417.621C-22.6599 413.001 -31.8884 399.764 -29.0887 392.963C-26.2891 386.163 -21.4156 380.452 -6.27673 384.917C8.86216 389.381 11.1952 393.119 11.5063 401.892C11.8174 410.665 14.2541 418.141 7.41048 418.971C0.566879 419.802 -11.1502 407.395 -11.1502 403.917C-11.1502 400.438 -5.70642 402.048 -3.32153 403.917C-0.936646 405.785 3.26283 409.108 4.76636 407.706C6.26987 406.305 8.08447 399.608 4.76636 396.908C1.44824 394.209 -12.3427 389.018 -14.9349 390.679C-17.5272 392.34 -22.5044 393.638 -20.7416 399.037C-18.9789 404.436 -9.38747 424.526 0.51503 427.796C10.4175 431.067 20.9422 422.605 21.2532 416.895C21.5643 411.184 19.0757 389.796 12.0766 382.061C5.07744 374.326 -10.6836 369.187 -17.4754 370.693C-24.2671 372.198 -38.2136 381.075 -38.7839 386.266C-38.3276 396.505 -35.9901 406.571 -31.8884 415.96C-28 424.007 -15.6089 448.042 -2.5957 449.444C10.4175 450.845 29.0819 441.605 31.9853 439.321C34.8886 437.037 36.9106 441.501 39.7102 445.966C42.5099 450.43 59.8263 467.509 69.8843 465.9C79.9424 464.291 108.094 440.1 112.501 425.72C116.908 411.34 119.241 395.974 116.545 385.384C113.849 374.794 106.435 368.616 97.7254 370.173C89.0153 371.731 74.4467 373.807 66.6181 381.127C58.7894 388.447 50.0793 403.605 49.7683 412.897C49.3242 417.285 49.9031 421.716 51.4594 425.842C53.0158 429.968 55.5072 433.675 58.7375 436.673C62.0188 438.928 65.9049 440.134 69.8843 440.134C73.8638 440.134 77.7499 438.928 81.0311 436.673C85.7491 432.417 97.4661 423.695 97.7254 413.78C97.9846 403.865 101.51 396.701 95.6516 394.417C92.3152 393.151 88.6651 392.971 85.2209 393.903C81.7767 394.835 78.7139 396.832 76.4687 399.608C70.6102 406.097 66.9291 412.119 70.5065 412.326C74.0838 412.534 79.2165 406.616 83.2605 405.837C87.3044 405.059 90.4152 405.266 89.4301 409.367C88.445 413.468 77.1427 428.315 67.966 424.266C58.7894 420.217 59.1005 407.758 62.3149 401.529C65.5293 395.299 80.3571 381.594 90.9855 382.01C101.614 382.425 106.954 388.031 108.094 394.572C108.607 402.181 107.711 409.82 105.45 417.102C103.895 422.294 91.141 446.018 78.5425 451.157C73.9103 452.875 68.8488 453.056 64.1059 451.673C59.3631 450.289 55.1906 447.415 52.205 443.474C49.4054 439.321 40.9545 430.184 39.9176 422.242C38.8807 414.299 36.2366 397.583 44.48 387.72C52.7235 377.857 77.5575 360.673 86.7341 359.843C95.9108 359.012 104.051 355.638 114.523 368.149C124.996 380.66 127.537 388.083 127.796 400.023C128.055 411.963 117.841 444.149 101.562 456.867C85.2824 469.586 80.8237 478.151 67.3439 477.632C53.8641 477.113 35.096 456.296 31.7779 456.452C28.4598 456.608 12.4395 465.433 5.85512 465.173C-0.709824 464.217 -6.99574 461.871 -12.5834 458.29C-18.171 454.71 -22.9318 449.977 -26.5483 444.408C-35.8287 429.821 -48.9456 406.876 -48.79 384.138M-8.03947 59.5812C-7.2364 59.4824 -6.46091 59.225 -5.75786 58.824C-5.05481 58.4231 -4.43819 57.8864 -3.94368 57.2452C-3.01407 56.0635 -1.74788 55.1925 -0.312805 54.7475C1.12227 54.3025 2.65849 54.3046 4.09238 54.7534C5.43343 54.9584 6.68778 55.5437 7.70712 56.44C8.72645 57.3363 9.46811 58.5062 9.84439 59.8112C10.2207 61.1163 10.2158 62.5019 9.83046 63.8043C9.44508 65.1067 8.69527 66.2713 7.66971 67.1605C3.41838 71.2616 -3.37338 79.4637 -10.2688 77.543C-17.1643 75.6222 -21.2082 68.5102 -19.8603 59.0621C-18.5123 49.6141 -11.4613 26.1496 -5.55089 22.7234C0.359497 19.2972 4.81821 19.4529 10.8323 25.942C16.8464 32.431 19.5423 38.401 24.8306 36.3245C30.1188 34.248 48.3166 15.5595 55.9379 18.5185C60.8717 20.6888 65.2076 24.0227 68.5752 28.2353C71.9427 32.4479 74.2419 37.4141 75.2763 42.7097C78.2315 55.7916 79.3721 70.379 71.0249 75.726C62.6778 81.073 55.4713 72.7151 52.6716 68.1987C49.872 63.6823 46.0354 57.349 49.509 55.3244C50.4108 54.7953 51.4166 54.469 52.4568 54.368C53.497 54.2669 54.5468 54.3937 55.5332 54.7394C56.5196 55.0851 57.4192 55.6415 58.1695 56.37C58.9197 57.0985 59.5028 57.9817 59.8782 58.9583C61.6927 63.4747 67.1884 65.3954 68.0179 59.6851C68.8474 53.9747 67.1365 41.5676 59.7226 38.349C52.3087 35.1305 43.132 40.5813 39.7621 44.6824C36.3921 48.7835 31.052 51.8982 32.7111 60.2561C34.3701 68.614 47.176 90.1058 61.5372 90.4172C75.8984 90.7287 90.7262 80.5539 90.467 66.5894C90.2078 52.625 85.5417 27.6032 75.9503 14.677C66.3588 1.75076 57.7525 -0.325733 52.9827 0.037654C48.2129 0.401041 31.1557 18.5704 27.4229 19.3491C23.69 20.1278 6.21803 1.9065 -0.781113 3.41196C-5.45761 4.23441 -9.83571 6.27431 -13.4758 9.32685C-17.116 12.3794 -19.89 16.3371 -21.5193 20.8026C-26.7039 33.1059 -34.8955 49.0949 -34.0141 62.6441C-33.1327 76.1932 -27.9482 87.2506 -13.2759 93.1686C1.39639 99.0866 16.5871 78.4774 19.9053 72.7151C23.2234 66.9528 27.2155 57.4009 22.8086 51.2752C18.4017 45.1496 10.1583 37.2589 2.07039 37.778C-6.01752 38.2971 -9.75038 50.4966 -10.0096 55.7397C-10.0096 59.0621 -9.12823 59.6851 -7.62471 59.4774M21.3569 90.3134C21.3569 90.3134 15.3428 93.9473 14.8762 97.8407C14.9764 100.389 15.7871 102.857 17.2165 104.968C18.6459 107.078 20.637 108.745 22.9641 109.781C25.2963 110.076 27.6593 109.568 29.6657 108.342C31.6722 107.116 33.203 105.244 34.0072 103.032C34.7039 100.975 34.8059 98.7627 34.3014 96.6502C33.7969 94.5377 32.7064 92.611 31.1557 91.0921C29.7783 90.0152 28.1152 89.3673 26.3732 89.2288C24.6311 89.0904 22.8867 89.4675 21.3569 90.3134ZM-28.9332 213.605C-27.7685 214.285 -26.4446 214.643 -25.0966 214.643C-23.7487 214.643 -22.4248 214.285 -21.2601 213.605C-16.9569 211.166 27.7858 163.77 31.1039 163.666C34.422 163.562 70.2472 200.368 80.4608 206.078C90.6744 211.789 109.287 216.149 117.427 204.157C125.566 192.166 116.131 173.425 112.242 163.77C108.354 154.114 89.1709 122.24 81.1348 117.36C73.0988 112.48 61.8483 106.977 55.9379 111.338C50.0275 115.699 37.3253 119.696 39.3992 130.961C41.473 142.226 53.3975 150.947 60.9151 158.423C68.4327 165.898 87.3563 183.704 92.1779 184.794C96.9995 185.884 99.0215 183.912 97.8809 180.382C91.4699 170.258 84.0904 160.782 75.8466 152.089C71.8026 148.663 56.249 135.425 56.249 132.259C56.249 129.092 54.901 123.33 61.9001 122.24C68.8993 121.149 83.0012 135.737 87.3563 141.447C94.5645 151.483 100.912 162.111 106.332 173.218C108.198 178.772 111.516 187.701 108.509 193.204C105.502 198.707 98.1401 200.264 91.141 196.89C84.1418 193.515 49.6646 160.551 46.2946 157.54C42.9247 154.529 35.9255 146.587 31.726 146.327C27.5266 146.067 1.34456 174.983 -3.11415 179.136C-7.57286 183.289 -21.5193 197.305 -26.7039 196.89C-31.8884 196.474 -41.0132 186.092 -40.8577 178.772C-40.7021 171.453 -42.3612 153.906 -32.9253 143.939C-23.4894 133.972 -13.2759 126.133 -5.96565 129.819C1.34456 133.505 1.86302 139.215 -2.95862 143.939C-7.78026 148.663 -27.6889 163.666 -29.1924 168.338C-30.696 173.01 -32.1476 179.291 -26.4965 180.382C-20.8453 181.472 6.68465 152.401 11.5063 147.209C16.3279 142.018 20.2163 135.633 16.6908 127.587C13.1653 119.54 -2.492 112.324 -16.3348 114.245C-30.1775 116.166 -43.45 130.649 -46.9755 137.502C-52.8237 151.08 -55.091 165.934 -53.5598 180.641C-51.2786 197.928 -47.2865 205.299 -29.5035 213.865M35.096 198.81C35.096 198.81 14.3578 209.556 13.7875 214.384C13.2172 219.212 23.8455 234.422 29.3411 235.772C34.8368 237.122 51.0644 227.778 53.3975 222.95C55.7305 218.122 41.0064 202.704 39.7102 201.769C38.3973 200.469 36.825 199.461 35.096 198.81ZM37.9475 271.488C37.9475 271.488 7.41048 237.381 -2.33647 235.149C-8.93083 233.205 -15.882 232.798 -22.6577 233.959C-29.4335 235.12 -35.8541 237.818 -41.428 241.846C-56.0484 252.696 -62.1662 267.335 -60.8182 286.439C-59.4702 305.542 -60.8182 309.644 -52.6785 322.258C-44.5387 334.873 -30.9552 345.048 -20.3787 345.307C-10.5467 345.713 -0.860138 342.827 7.15126 337.105C17.5204 330.772 30.6373 312.758 30.741 307.1C31.1335 303.591 30.7159 300.039 29.5203 296.718C28.3248 293.397 26.3833 290.395 23.8455 287.944C17.0537 281.507 0.1521 262.663 -6.1212 261.313C-13.0411 259.872 -20.2494 261.115 -26.2891 264.791C-30.4886 268.373 -39.095 272.786 -39.406 282.493C-39.7171 292.201 -40.08 306.685 -29.0369 312.291C-17.9938 317.898 -7.62473 317.171 -2.80309 313.225C2.01855 309.28 7.82525 303.777 3.211 297.652C-1.40326 291.526 -10.5799 285.971 -14.2609 288.879C-17.942 291.786 -15.3497 294.849 -10.8391 297.859C-6.32858 300.87 -5.65459 306.425 -12.0834 306.373C-18.5123 306.321 -27.6371 301.182 -28.0518 295.316C-28.4666 289.45 -25.0448 275.122 -16.2829 274.551C-7.52103 273.98 8.44739 286.854 13.3209 291.993C16.2062 294.857 17.9178 298.698 18.1192 302.761C18.3207 306.824 16.9975 310.816 14.4096 313.952C8.13632 321.999 -0.57373 332.693 -14.3646 330.668C-28.1555 328.643 -47.5458 318.936 -48.3753 304.245C-49.2048 289.553 -52.6785 269.515 -45.4719 262.351C-38.2654 255.187 -22.8155 239.614 -9.80223 245.739C3.211 251.865 31.2076 285.764 36.8587 285.556C42.5099 285.349 83.5197 248.439 91.4521 248.646C99.3844 248.854 105.865 249.84 113.849 264.22C121.834 278.6 127.588 291.37 123.648 304.348C119.708 317.327 106.954 334.769 93.1111 331.81C79.2684 328.851 62.7815 312.395 62.8852 306.321C62.9889 300.247 76.9872 282.441 83.8826 282.182C90.7781 281.922 97.7254 282.649 100.007 288.204C102.288 293.758 103.999 304.4 98.1401 306.165C92.2816 307.93 87.3563 304.971 88.9116 301.13C90.467 297.288 92.3334 292.253 88.9116 292.98C85.4898 293.706 75.9503 297.807 79.3721 306.84C82.7939 315.873 89.9485 321.895 97.7254 317.794C105.502 313.693 114.783 309.644 114.316 296.198C113.849 282.753 106.073 265.726 95.1849 267.023C84.2974 268.321 52.205 287.062 50.2867 293.706C48.3684 300.351 42.7691 302.739 59.6708 321.895C76.5724 341.051 81.5496 349.045 101.147 346.813C120.745 344.581 127.07 330.512 131.373 317.482C135.82 300.453 134.637 282.441 128.003 266.141C120.848 248.802 110.946 232.865 98.4512 232.657C85.9564 232.45 66.0996 244.753 37.9993 271.176" fill="white" fill-opacity="0.1"/>
</svg>
